<?xml version="1.0" encoding="UTF-8" standalone="no"?>
<!DOCTYPE svg PUBLIC "-//W3C//DTD SVG 20010904//EN"
              "http://www.w3.org/TR/2001/REC-SVG-20010904/DTD/svg10.dtd">

<svg xmlns="http://www.w3.org/2000/svg"
     viewBox="0 0 735 708"
     id="glass_crack">
  <path id="glass_crack__path"
        fill="transparent" stroke="black" stroke-width="1"
        d="M 262.00,1.00
           C 265.41,4.86 268.32,12.15 270.42,17.00
             274.43,26.22 278.18,35.33 281.00,45.00
             282.69,50.79 285.84,62.42 289.49,66.89
             293.23,71.47 305.24,75.23 311.00,77.42
             311.00,77.42 361.00,95.67 361.00,95.67
             361.00,95.67 392.00,105.91 392.00,105.91
             396.57,107.51 400.68,109.69 404.67,105.91
             406.39,104.15 408.09,101.13 409.22,99.00
             415.38,87.41 414.97,82.41 416.17,70.00
             416.17,70.00 418.00,47.00 418.00,47.00
             418.02,43.63 417.73,41.19 419.00,38.00
             419.00,54.33 417.93,80.08 415.57,96.00
             415.57,96.00 408.58,140.00 408.58,140.00
             407.18,148.97 405.01,157.89 405.00,167.00
             405.00,167.00 405.00,177.00 405.00,177.00
             405.00,177.00 404.39,192.00 404.39,192.00
             405.17,195.65 408.21,199.77 410.19,203.00
             413.63,208.62 417.17,214.96 421.46,219.96
             423.27,222.07 427.25,226.02 430.00,226.60
             433.20,227.28 442.48,221.86 443.94,218.90
             444.65,217.03 444.03,212.31 443.94,210.00
             443.94,210.00 443.94,194.00 443.94,194.00
             444.19,177.99 448.17,169.42 453.31,155.00
             453.31,155.00 459.67,136.00 459.67,136.00
             459.67,136.00 470.00,106.00 470.00,106.00
             469.14,111.54 466.99,116.64 465.42,122.00
             458.33,146.25 446.71,171.50 447.00,197.00
             447.00,197.00 447.91,207.00 447.91,207.00
             448.40,214.18 447.01,221.18 457.00,221.26
             462.47,221.31 464.76,216.15 467.15,212.00
             467.15,212.00 484.00,183.00 484.00,183.00
             484.00,183.00 510.05,137.00 510.05,137.00
             510.05,137.00 524.12,118.00 524.12,118.00
             524.12,118.00 530.01,107.00 530.01,107.00
             535.16,98.21 550.58,75.78 558.00,70.00
             558.00,70.00 536.34,102.00 536.34,102.00
             536.34,102.00 523.65,124.00 523.65,124.00
             518.50,131.46 516.41,131.39 511.43,140.00
             511.43,140.00 488.86,184.00 488.86,184.00
             488.86,184.00 475.71,214.00 475.71,214.00
             464.87,233.08 443.59,258.31 438.00,279.00
             449.58,275.60 458.08,254.29 468.01,247.72
             471.06,245.71 478.25,244.11 482.00,243.12
             491.26,240.67 502.67,238.20 510.91,233.47
             510.91,233.47 532.00,215.15 532.00,215.15
             532.00,215.15 567.00,185.42 567.00,185.42
             580.57,173.80 578.37,171.82 584.10,166.17
             587.84,162.48 598.20,155.79 603.00,152.81
             606.63,150.55 611.85,146.20 616.00,146.00
             616.00,146.00 594.00,162.13 594.00,162.13
             591.61,163.95 587.26,167.06 586.41,170.00
             585.61,172.78 589.82,180.88 590.95,184.00
             593.84,192.00 595.99,203.49 596.00,212.00
             596.01,215.95 595.61,225.75 596.70,229.00
             597.84,232.39 604.21,240.74 606.63,244.00
             606.63,244.00 619.94,264.00 619.94,264.00
             629.45,279.41 636.67,297.31 640.58,315.00
             640.58,315.00 644.83,340.00 644.83,340.00
             644.83,340.00 646.28,357.00 646.28,357.00
             646.28,357.00 648.33,370.00 648.33,370.00
             648.33,370.00 650.40,377.00 650.40,377.00
             651.26,382.40 647.15,391.07 650.40,394.70
             652.82,397.20 667.05,403.29 671.00,405.00
             689.19,412.85 689.01,409.79 701.00,414.09
             701.00,414.09 722.00,425.00 722.00,425.00
             726.44,427.52 731.37,429.37 735.00,433.00
             735.00,433.00 704.00,418.70 704.00,418.70
             704.00,418.70 687.00,415.32 687.00,415.32
             687.00,415.32 672.00,409.94 672.00,409.94
             672.00,409.94 637.00,395.65 637.00,395.65
             637.00,395.65 618.00,399.87 618.00,399.87
             618.00,399.87 604.00,397.41 604.00,397.41
             604.00,397.41 568.00,390.35 568.00,390.35
             568.00,390.35 509.00,373.66 509.00,373.66
             509.00,373.66 474.00,363.00 474.00,363.00
             474.00,363.00 489.00,375.22 489.00,375.22
             493.30,378.25 517.04,391.04 522.00,392.94
             522.00,392.94 578.00,412.32 578.00,412.32
             591.48,419.50 613.93,445.95 626.00,458.00
             626.00,458.00 661.00,490.91 661.00,490.91
             667.35,496.82 673.87,501.84 679.00,509.00
             672.83,505.09 652.32,488.14 647.09,482.91
             647.09,482.91 638.99,474.04 638.99,474.04
             638.99,474.04 622.00,458.91 622.00,458.91
             622.00,458.91 599.96,437.82 599.96,437.82
             590.48,429.09 582.92,418.99 571.00,413.32
             571.00,413.32 537.00,400.67 537.00,400.67
             533.21,399.47 526.42,398.35 524.50,403.22
             523.31,406.25 528.65,418.45 529.95,422.00
             533.92,432.86 538.98,444.31 539.00,456.00
             539.00,456.00 540.43,478.00 540.43,478.00
             541.01,480.12 541.86,481.32 543.22,483.00
             552.86,494.84 564.02,504.44 571.56,518.00
             573.73,521.90 577.63,529.63 577.00,534.00
             568.35,517.84 563.16,510.01 550.00,497.00
             545.73,492.78 539.33,486.51 534.00,484.00
             531.09,490.86 519.45,505.67 514.40,512.00
             507.29,520.91 497.00,534.70 488.00,541.22
             481.97,545.58 474.12,549.37 467.00,551.57
             462.47,552.96 458.00,553.46 457.15,559.02
             456.70,561.89 457.37,565.15 457.72,568.00
             459.66,584.25 460.42,582.34 466.58,597.00
             466.58,597.00 486.89,644.00 486.89,644.00
             486.89,644.00 495.02,657.00 495.02,657.00
             497.28,661.35 498.78,667.24 500.14,672.00
             500.14,672.00 506.00,691.00 506.00,691.00
             507.23,694.72 509.05,698.13 508.00,702.00
             506.40,694.98 497.80,670.25 494.63,664.00
             494.63,664.00 488.45,654.00 488.45,654.00
             488.45,654.00 481.43,640.00 481.43,640.00
             477.81,631.53 468.60,605.74 463.73,600.04
             460.30,596.03 445.34,587.13 440.00,583.66
             440.00,583.66 408.00,563.31 408.00,563.31
             404.25,560.86 395.36,553.93 392.00,552.72
             392.00,552.72 379.00,550.69 379.00,550.69
             367.86,548.60 362.66,544.15 354.00,537.42
             352.04,535.90 347.14,531.37 344.56,532.90
             342.98,533.83 341.74,538.25 341.19,540.00
             341.19,540.00 335.13,557.00 335.13,557.00
             332.31,563.54 325.72,572.35 325.10,579.00
             324.68,583.59 326.26,591.13 326.85,596.00
             329.05,614.42 332.14,630.33 330.05,649.00
             329.53,653.63 328.74,661.93 327.00,666.00
             327.00,666.00 327.91,655.00 327.91,655.00
             328.80,641.98 328.73,635.99 326.73,623.00
             326.73,623.00 321.58,591.00 321.58,591.00
             320.97,587.07 319.30,578.59 319.63,575.00
             320.13,569.64 328.43,554.64 331.25,549.00
             332.33,546.84 335.43,541.47 335.01,539.22
             334.55,536.70 331.04,535.66 329.00,534.69
             324.41,532.52 321.64,530.87 318.21,526.98
             318.21,526.98 294.37,494.00 294.37,494.00
             292.43,491.39 288.16,483.51 284.25,485.74
             283.14,486.38 280.87,488.98 279.93,490.00
             271.11,499.58 269.71,509.87 265.67,522.00
             261.45,534.66 252.39,560.93 246.51,572.00
             243.74,577.21 239.59,583.16 236.14,588.00
             233.65,591.49 232.19,594.04 229.00,597.00
             229.00,597.00 242.11,573.00 242.11,573.00
             242.11,573.00 255.00,535.00 255.00,535.00
             256.38,530.86 262.09,515.29 261.23,512.00
             260.47,509.11 257.07,506.11 255.00,504.00
             255.00,504.00 243.08,491.00 243.08,491.00
             243.08,491.00 231.00,476.00 231.00,476.00
             229.34,473.82 227.16,470.48 224.00,470.91
             221.96,471.18 218.63,474.10 217.00,475.42
             211.18,480.17 206.75,483.87 201.75,489.58
             201.75,489.58 170.42,528.00 170.42,528.00
             166.24,533.11 159.63,541.92 155.00,546.00
             155.00,546.00 168.01,527.00 168.01,527.00
             168.01,527.00 184.42,481.00 184.42,481.00
             184.42,481.00 197.00,454.00 197.00,454.00
             197.00,454.00 170.00,472.58 170.00,472.58
             170.00,472.58 143.00,493.09 143.00,493.09
             143.00,493.09 106.00,529.00 106.00,529.00
             108.99,523.40 113.47,518.80 117.58,514.00
             117.58,514.00 142.00,489.17 142.00,489.17
             142.00,489.17 158.00,475.71 158.00,475.71
             158.00,475.71 185.09,447.00 185.09,447.00
             196.40,434.93 208.67,423.25 218.63,410.00
             225.03,401.47 230.68,392.37 235.77,383.00
             237.10,380.54 240.96,374.47 241.05,372.00
             241.15,369.48 239.61,367.84 237.94,366.17
             235.92,364.15 225.17,355.23 223.00,354.47
             219.77,353.34 215.14,355.29 212.00,356.33
             212.00,356.33 190.00,362.63 190.00,362.63
             164.65,368.96 140.77,372.76 117.00,384.26
             117.00,384.26 87.00,399.86 87.00,399.86
             83.00,402.21 77.58,406.80 73.00,407.00
             93.42,392.67 120.25,378.26 144.00,370.52
             144.00,370.52 180.00,361.53 180.00,361.53
             180.00,361.53 202.00,355.14 202.00,355.14
             207.17,353.35 212.45,350.69 218.00,351.00
             218.16,342.30 211.78,345.43 206.00,346.87
             206.00,346.87 183.00,352.77 183.00,352.77
             183.00,352.77 168.00,356.01 168.00,356.01
             168.00,356.01 108.00,376.96 108.00,376.96
             108.00,376.96 82.00,381.42 82.00,381.42
             82.00,381.42 54.00,388.71 54.00,388.71
             54.00,388.71 22.00,397.29 22.00,397.29
             17.61,398.55 11.40,401.23 7.00,400.00
             7.00,400.00 41.00,390.02 41.00,390.02
             41.00,390.02 77.00,378.91 77.00,378.91
             77.00,378.91 93.00,372.20 93.00,372.20
             98.94,369.82 120.35,362.50 123.91,359.58
             127.95,356.27 137.62,339.46 141.05,334.00
             141.05,334.00 152.42,316.00 152.42,316.00
             154.14,313.24 157.09,309.22 157.43,306.00
             157.84,302.01 152.85,291.20 151.20,287.00
             151.20,287.00 139.80,257.00 139.80,257.00
             137.86,252.07 133.93,242.99 133.61,238.00
             133.61,238.00 134.30,223.00 134.30,223.00
             133.45,216.99 129.48,216.56 130.09,207.00
             130.09,207.00 133.17,178.00 133.17,178.00
             133.83,171.39 135.35,167.18 131.60,161.00
             131.60,161.00 113.00,134.00 113.00,134.00
             113.00,134.00 56.81,48.00 56.81,48.00
             56.81,48.00 38.85,22.00 38.85,22.00
             36.35,18.57 31.92,14.36 32.00,10.00
             32.00,10.00 53.58,38.00 53.58,38.00
             53.58,38.00 93.58,95.00 93.58,95.00
             93.58,95.00 118.29,129.00 118.29,129.00
             118.29,129.00 136.17,152.96 136.17,152.96
             143.26,160.42 149.08,158.19 157.00,164.39
             157.00,164.39 193.83,203.00 193.83,203.00
             193.83,203.00 222.96,234.00 222.96,234.00
             222.96,234.00 236.00,248.00 236.00,248.00
             239.23,251.23 248.58,261.56 253.79,259.01
             256.48,257.70 261.24,248.00 262.75,245.00
             264.59,241.34 271.25,229.32 271.22,226.00
             271.20,222.98 267.74,217.88 266.26,215.00
             266.26,215.00 252.70,189.00 252.70,189.00
             252.70,189.00 220.31,130.00 220.31,130.00
             220.31,130.00 199.58,92.00 199.58,92.00
             199.58,92.00 179.74,63.00 179.74,63.00
             179.74,63.00 164.98,40.00 164.98,40.00
             164.98,40.00 148.00,15.00 148.00,15.00
             152.65,18.88 155.79,24.16 159.37,29.00
             159.37,29.00 179.02,57.00 179.02,57.00
             179.02,57.00 202.94,92.00 202.94,92.00
             202.94,92.00 222.42,126.00 222.42,126.00
             222.42,126.00 246.00,167.00 246.00,167.00
             246.00,167.00 270.42,209.00 270.42,209.00
             272.26,212.17 278.48,223.55 281.32,224.77
             284.02,225.92 288.63,223.24 291.00,221.98
             298.33,218.08 304.35,216.35 312.00,213.64
             315.50,212.40 318.44,211.27 318.19,206.98
             318.19,206.98 306.00,165.00 306.00,165.00
             306.00,165.00 301.73,135.00 301.73,135.00
             301.73,135.00 294.85,104.00 294.85,104.00
             294.85,104.00 286.42,80.00 286.42,80.00
             286.42,80.00 274.49,35.00 274.49,35.00
             274.49,35.00 262.00,1.00 262.00,1.00 Z
           M 144.00,9.00
           C 144.00,9.00 146.00,13.00 146.00,13.00
             146.00,13.00 144.00,9.00 144.00,9.00 Z
           M 393.00,113.00
           C 390.54,109.79 387.68,109.71 384.00,108.49
             384.00,108.49 366.00,102.58 366.00,102.58
             366.00,102.58 324.00,85.69 324.00,85.69
             316.71,82.35 298.68,73.25 292.00,72.00
             293.43,79.93 296.43,83.12 298.91,90.00
             298.91,90.00 304.37,112.00 304.37,112.00
             305.23,115.50 306.18,123.11 309.28,124.96
             312.45,126.86 326.71,123.47 331.00,122.87
             331.00,122.87 393.00,113.00 393.00,113.00 Z
           M 202.00,92.00
           C 202.00,92.00 201.00,92.00 201.00,92.00
             201.00,92.00 202.00,93.00 202.00,93.00
             202.00,93.00 202.00,92.00 202.00,92.00 Z
           M 472.00,98.00
           C 472.00,98.00 470.00,105.00 470.00,105.00
             470.00,105.00 472.00,98.00 472.00,98.00 Z
           M 394.94,118.43
           C 394.94,118.43 374.00,121.75 374.00,121.75
             374.00,121.75 333.00,128.75 333.00,128.75
             328.24,129.55 313.47,130.94 310.74,134.31
             307.17,138.71 310.54,147.17 311.85,152.00
             311.85,152.00 318.42,173.00 318.42,173.00
             322.33,183.35 325.63,187.41 328.00,199.00
             328.00,199.00 330.59,214.00 330.59,214.00
             331.01,216.42 331.15,219.15 333.43,220.60
             336.07,222.26 343.48,221.96 347.00,222.42
             347.00,222.42 383.00,225.99 383.00,225.99
             385.18,226.04 389.69,226.27 391.44,224.98
             394.18,222.95 394.97,209.85 395.59,206.00
             397.30,195.37 399.78,182.67 399.87,172.00
             400.21,160.58 396.78,157.79 399.87,145.00
             401.85,135.18 400.63,136.38 399.87,127.00
             399.67,122.63 399.82,119.31 394.94,118.43 Z
           M 141.12,165.86
           C 136.28,167.49 137.07,171.59 137.00,176.00
             137.00,176.00 135.01,205.00 135.01,205.00
             135.21,212.92 138.18,215.55 139.54,223.00
             139.54,223.00 142.50,247.00 142.50,247.00
             142.50,247.00 155.05,282.00 155.05,282.00
             155.05,282.00 160.68,297.00 160.68,297.00
             161.47,299.12 162.58,302.66 164.50,303.98
             166.05,305.04 168.21,304.97 170.00,304.83
             175.36,304.41 191.15,302.64 194.89,299.57
             199.00,296.20 200.02,289.93 201.42,285.00
             201.42,285.00 210.43,253.00 210.43,253.00
             211.46,249.36 215.28,241.15 214.35,238.00
             213.37,234.71 203.81,224.84 201.00,222.00
             201.00,222.00 174.00,193.00 174.00,193.00
             174.00,193.00 158.04,176.00 158.04,176.00
             155.27,173.10 152.55,169.29 148.99,167.45
             146.40,166.11 143.96,165.90 141.12,165.86 Z
           M 582.00,171.00
           C 582.00,171.00 581.00,171.00 581.00,171.00
             581.00,171.00 582.00,172.00 582.00,172.00
             582.00,172.00 582.00,171.00 582.00,171.00 Z
           M 552.00,333.00
           C 557.30,329.60 563.69,314.17 566.75,308.00
             577.03,287.30 592.73,250.93 593.00,228.00
             593.15,214.54 591.93,205.05 588.63,192.00
             587.86,188.99 586.17,181.42 583.58,179.74
             579.72,177.23 569.97,187.43 567.00,190.00
             567.00,190.00 531.00,220.58 531.00,220.58
             525.64,225.14 519.47,228.35 519.81,236.00
             520.19,244.43 523.19,246.96 527.14,254.00
             527.14,254.00 538.75,276.00 538.75,276.00
             549.66,297.97 552.00,308.79 552.00,333.00 Z
           M 438.00,242.00
           C 438.00,242.00 414.13,214.00 414.13,214.00
             410.02,209.16 408.37,204.89 402.00,203.00
             398.76,214.18 396.25,223.31 397.87,235.00
             398.29,238.05 398.56,244.19 401.31,246.01
             403.69,247.51 408.26,246.36 411.00,246.01
             411.00,246.01 438.00,242.00 438.00,242.00 Z
           M 321.00,220.00
           C 311.69,220.43 302.55,223.45 294.00,227.01
             291.36,228.11 286.50,229.89 285.99,233.10
             285.58,235.65 289.93,242.49 291.30,245.00
             291.30,245.00 307.00,274.00 307.00,274.00
             308.53,276.69 314.28,285.65 312.19,288.40
             310.92,290.08 307.87,289.92 306.00,290.03
             306.00,290.03 290.00,291.00 290.00,291.00
             282.63,290.91 275.95,287.47 269.00,285.22
             267.16,284.62 263.63,282.83 262.01,282.81
             256.45,282.74 252.58,294.06 249.37,297.86
             244.82,303.25 238.76,300.87 235.60,303.85
             233.20,306.12 233.99,315.59 234.00,319.00
             234.00,320.65 233.86,324.15 234.57,325.57
             236.48,329.36 244.41,327.14 248.00,327.01
             258.40,326.64 264.42,323.82 274.00,320.50
             278.07,319.09 282.63,316.85 287.00,317.36
             289.22,317.63 305.02,322.69 307.00,323.76
             309.11,324.91 311.04,326.44 312.70,328.17
             314.57,330.11 318.06,334.12 317.47,337.00
             316.92,339.68 313.01,342.68 311.00,344.42
             311.00,344.42 296.00,357.42 296.00,357.42
             292.00,360.86 283.26,368.26 280.28,372.00
             276.27,377.02 278.51,377.94 272.94,384.00
             267.49,389.94 258.33,396.97 255.00,404.00
             257.72,405.54 260.81,407.47 264.00,407.70
             275.79,408.53 290.00,392.71 298.00,385.72
             300.30,383.71 307.09,376.70 309.88,376.53
             313.49,376.31 315.59,384.22 315.64,387.00
             315.64,387.00 315.00,392.00 315.00,392.00
             318.10,394.62 318.81,395.39 320.74,399.00
             323.14,403.49 326.40,409.77 324.40,414.96
             322.99,418.63 317.96,421.41 315.04,424.17
             310.45,428.52 307.67,433.72 307.00,440.00
             307.00,440.00 318.00,437.24 318.00,437.24
             318.00,437.24 331.00,435.13 331.00,435.13
             334.39,434.66 342.20,434.03 344.72,432.15
             349.58,428.51 348.34,417.96 351.73,413.10
             354.37,409.33 359.86,407.46 364.00,405.80
             364.00,405.80 390.00,395.20 390.00,395.20
             393.06,393.97 400.64,389.75 403.49,391.78
             405.82,393.44 407.14,400.20 407.88,403.00
             407.88,403.00 416.00,428.00 416.00,428.00
             427.03,424.78 435.94,415.39 443.28,407.00
             445.75,404.18 450.66,400.31 448.77,396.17
             447.93,394.34 443.62,390.56 442.00,388.99
             442.00,388.99 425.00,373.09 425.00,373.09
             423.29,371.49 419.26,368.39 418.44,366.39
             417.54,364.18 419.32,359.27 420.02,357.00
             420.02,357.00 427.00,336.00 427.00,336.00
             433.99,339.12 440.49,343.55 447.00,347.58
             449.35,349.03 454.31,352.36 457.00,352.30
             460.94,352.20 462.92,347.98 467.00,347.25
             472.31,346.30 476.05,351.00 480.00,344.00
             480.00,344.00 457.00,332.96 457.00,332.96
             449.38,329.18 448.48,322.44 446.00,315.00
             444.86,311.58 440.35,299.85 440.92,297.00
             441.79,292.67 451.50,284.96 455.00,281.84
             455.00,281.84 480.00,259.58 480.00,259.58
             484.91,255.32 492.29,249.72 495.00,244.00
             490.92,244.19 480.38,246.00 477.00,247.93
             473.28,250.07 469.90,254.66 467.20,258.00
             467.20,258.00 448.91,279.89 448.91,279.89
             441.76,286.72 438.37,281.73 433.50,287.23
             428.49,292.87 425.96,312.86 416.04,310.67
             411.56,309.68 410.68,304.61 409.13,301.00
             406.87,295.74 400.19,281.56 394.96,279.60
             391.00,278.12 380.75,281.36 376.00,281.83
             369.05,282.53 365.48,281.08 359.00,281.00
             359.00,281.00 346.00,281.00 346.00,281.00
             342.93,281.00 337.41,281.31 334.99,279.23
             332.06,276.71 329.85,266.96 328.71,263.00
             328.71,263.00 320.20,232.00 320.20,232.00
             320.20,232.00 321.00,220.00 321.00,220.00 Z
           M 451.00,236.00
           C 457.33,232.66 462.17,223.72 450.00,223.00
             450.00,223.00 451.00,236.00 451.00,236.00 Z
           M 448.00,238.19
           C 448.00,238.19 446.61,231.00 446.61,231.00
             446.27,229.27 445.96,226.13 444.41,225.07
             441.47,223.06 435.66,227.01 434.96,230.05
             434.17,233.52 439.13,237.45 442.00,238.19
             444.34,239.15 445.78,238.60 448.00,238.19 Z
           M 361.00,231.28
           C 361.00,231.28 342.00,232.92 342.00,232.92
             337.45,233.29 333.48,232.88 334.34,239.02
             334.34,239.02 339.66,254.00 339.66,254.00
             339.66,254.00 343.30,265.85 343.30,265.85
             344.75,268.26 346.31,268.75 349.00,268.66
             349.00,268.66 377.00,264.41 377.00,264.41
             380.09,263.89 386.26,263.26 388.57,261.27
             391.90,258.38 390.96,251.12 391.00,247.00
             391.03,244.35 392.30,237.49 391.00,235.72
             389.83,234.15 385.88,233.25 384.00,232.71
             376.57,230.59 368.66,230.57 361.00,231.28 Z
           M 294.00,268.17
           C 292.30,262.05 285.37,249.07 282.26,243.00
             279.75,238.12 279.06,234.67 274.00,232.00
             274.00,232.00 261.68,261.96 261.68,261.96
             260.68,266.79 265.32,267.50 269.00,268.17
             277.13,270.17 286.15,271.27 294.00,268.17 Z
           M 511.00,239.47
           C 505.10,241.68 490.25,256.82 485.00,261.99
             485.00,261.99 473.99,272.09 473.99,272.09
             473.99,272.09 463.00,282.72 463.00,282.72
             460.13,285.25 453.61,290.31 452.73,294.00
             452.10,296.65 453.76,298.93 455.16,301.00
             455.16,301.00 465.32,314.98 465.32,314.98
             470.72,321.25 475.08,322.01 482.00,325.36
             482.00,325.36 513.00,340.26 513.00,340.26
             516.95,342.17 528.25,348.29 532.00,348.48
             536.21,348.69 545.93,340.79 547.40,336.96
             548.12,335.11 548.00,332.02 548.00,330.00
             548.02,320.85 548.31,313.09 546.33,304.00
             544.52,295.71 532.04,268.64 527.75,260.00
             525.67,255.80 520.02,243.07 516.79,240.74
             514.61,239.16 513.46,239.36 511.00,239.47 Z
           M 639.00,330.00
           C 640.88,323.30 638.49,315.65 636.87,309.00
             631.62,287.51 624.54,276.12 612.33,258.00
             608.64,252.53 602.13,240.98 596.00,239.00
             599.04,255.14 605.19,271.55 605.00,288.00
             604.93,293.56 603.76,299.56 602.34,305.00
             602.08,307.27 600.96,310.56 602.34,312.73
             603.47,315.30 609.31,317.09 612.00,318.30
             612.00,318.30 639.00,330.00 639.00,330.00 Z
           M 596.00,243.00
           C 596.00,243.00 594.00,243.00 594.00,243.00
             589.93,264.64 581.57,285.37 571.75,305.00
             571.75,305.00 562.58,322.00 562.58,322.00
             559.99,326.46 557.57,328.69 558.00,334.00
             558.00,334.00 584.00,319.14 584.00,319.14
             587.09,317.42 594.36,314.20 596.16,311.78
             599.71,307.01 601.21,292.18 601.68,286.00
             601.68,286.00 596.00,243.00 596.00,243.00 Z
           M 221.00,244.00
           C 216.98,248.23 215.81,254.56 214.00,260.00
             211.21,268.37 203.68,288.45 203.00,296.00
             203.00,296.00 227.00,297.00 227.00,297.00
             227.00,297.00 237.61,295.98 237.61,295.98
             237.61,295.98 244.26,284.00 244.26,284.00
             244.26,284.00 248.27,273.01 248.27,273.01
             248.27,273.01 240.00,263.96 240.00,263.96
             240.00,263.96 221.00,244.00 221.00,244.00 Z
           M 439.00,247.00
           C 432.83,245.53 420.70,249.25 414.00,250.60
             411.64,251.07 406.15,252.05 404.31,253.30
             401.90,254.94 402.00,257.38 402.41,260.00
             402.41,260.00 402.41,272.00 402.41,272.00
             403.42,274.94 406.67,280.16 408.28,283.00
             411.20,288.13 414.99,295.99 419.00,300.00
             419.00,300.00 422.39,282.00 422.39,282.00
             422.39,282.00 439.00,247.00 439.00,247.00 Z
           M 459.00,260.00
           C 459.00,260.00 458.00,260.00 458.00,260.00
             458.00,260.00 459.00,261.00 459.00,261.00
             459.00,261.00 459.00,260.00 459.00,260.00 Z
           M 133.00,356.00
           C 142.49,356.47 152.91,347.02 168.00,347.00
             189.22,346.97 188.36,344.91 208.00,338.33
             211.76,337.08 220.82,334.54 223.15,331.59
             225.30,328.85 226.13,315.38 226.45,311.29
             226.64,308.89 226.59,306.62 223.84,305.89
             222.56,305.36 217.68,305.91 216.00,305.89
             216.00,305.89 196.00,307.83 196.00,307.83
             191.48,308.27 185.10,308.07 181.00,310.17
             177.74,311.84 173.80,316.30 171.00,318.91
             171.00,318.91 153.00,335.96 153.00,335.96
             146.16,342.50 138.56,348.23 133.00,356.00 Z
           M 597.00,323.39
           C 597.00,323.39 575.00,332.20 575.00,332.20
             575.00,332.20 559.00,339.00 559.00,339.00
             556.56,340.09 553.62,341.22 553.14,344.10
             552.54,345.54 553.04,347.58 553.14,349.00
             554.86,355.03 556.57,356.85 562.00,359.74
             562.00,359.74 578.00,367.36 578.00,367.36
             578.00,367.36 600.00,379.28 600.00,379.28
             604.62,381.91 617.98,390.42 622.00,391.48
             626.66,392.77 630.66,391.35 635.00,391.48
             635.00,391.48 640.87,391.48 640.87,391.48
             644.57,390.82 645.07,386.14 645.32,383.00
             645.75,377.42 643.19,374.23 642.16,369.00
             642.16,369.00 642.16,347.00 642.16,347.00
             641.99,343.61 642.25,340.10 640.11,337.22
             637.96,334.33 633.29,332.91 630.00,331.60
             621.90,328.39 605.36,322.34 597.00,323.39 Z
           M 175.00,462.00
           C 181.15,459.65 183.79,456.71 189.00,453.03
             203.64,442.70 204.42,441.46 217.00,429.00
             217.00,429.00 256.83,390.00 256.83,390.00
             256.83,390.00 272.63,369.00 272.63,369.00
             272.63,369.00 287.86,348.00 287.86,348.00
             289.39,345.86 293.67,340.29 294.13,338.00
             294.85,334.43 290.89,330.34 288.00,328.79
             283.73,326.51 281.03,330.05 278.42,333.00
             278.42,333.00 258.73,356.00 258.73,356.00
             254.38,361.08 249.49,366.50 245.75,372.00
             245.75,372.00 218.56,414.00 218.56,414.00
             218.56,414.00 188.91,446.00 188.91,446.00
             183.52,451.79 179.11,454.96 175.00,462.00 Z
           M 271.00,332.00
           C 271.00,332.00 228.00,351.00 228.00,351.00
             229.95,355.29 238.56,366.25 243.91,365.18
             246.68,364.62 250.57,359.18 252.43,357.00
             257.60,350.93 268.96,339.47 272.00,333.00
             272.00,333.00 271.00,332.00 271.00,332.00 Z
           M 248.00,336.00
           C 248.00,336.00 232.00,339.63 232.00,339.63
             232.00,339.63 224.83,342.70 224.83,342.70
             224.83,342.70 224.00,347.00 224.00,347.00
             229.86,345.94 243.88,340.08 248.00,336.00 Z
           M 434.00,344.00
           C 431.97,349.12 432.99,362.32 435.89,367.00
             435.89,367.00 447.30,380.09 447.30,380.09
             447.30,380.09 502.91,440.96 502.91,440.96
             507.31,445.56 520.26,461.04 524.00,463.40
             527.16,465.40 533.55,465.72 535.40,461.72
             536.11,460.21 536.02,456.73 535.99,455.00
             535.80,446.69 528.97,425.95 526.28,417.00
             524.69,411.70 523.07,404.32 519.47,400.18
             515.00,395.05 508.28,393.73 505.14,391.31
             502.04,388.92 502.56,387.19 498.87,384.44
             498.87,384.44 480.00,373.42 480.00,373.42
             480.00,373.42 472.00,367.98 472.00,367.98
             472.00,367.98 455.00,360.68 455.00,360.68
             444.78,355.30 441.99,351.99 434.00,344.00 Z
           M 504.00,356.00
           C 504.00,356.00 496.00,357.00 496.00,357.00
             496.00,357.00 504.00,358.00 504.00,358.00
             504.00,358.00 504.00,356.00 504.00,356.00 Z
           M 580.00,377.00
           C 580.00,377.00 558.00,367.22 558.00,367.22
             558.00,367.22 541.00,360.50 541.00,360.50
             541.00,360.50 523.00,363.65 523.00,363.65
             523.00,363.65 517.00,363.09 517.00,363.09
             517.00,363.09 491.00,360.00 491.00,360.00
             493.90,363.73 507.90,365.91 513.00,367.00
             513.00,367.00 560.00,378.08 560.00,378.08
             565.83,379.06 574.41,380.57 580.00,379.00
             580.00,379.00 580.00,377.00 580.00,377.00 Z
           M 607.00,394.00
           C 602.96,388.87 593.59,382.48 587.00,381.75
             587.00,381.75 576.00,381.75 576.00,381.75
             565.12,382.12 554.50,378.97 544.00,376.37
             544.00,376.37 513.00,369.13 513.00,369.13
             506.51,367.51 491.98,363.43 486.00,364.00
             490.87,366.89 509.44,371.55 516.00,373.42
             516.00,373.42 575.00,389.21 575.00,389.21
             582.20,390.76 600.59,395.30 607.00,394.00 Z
           M 265.00,504.00
           C 265.00,504.00 269.31,493.00 269.31,493.00
             269.31,493.00 288.69,457.00 288.69,457.00
             288.69,457.00 302.58,431.00 302.58,431.00
             302.58,431.00 311.75,413.00 311.75,413.00
             313.39,409.70 315.31,406.74 313.82,403.00
             313.21,401.47 311.60,399.33 310.57,398.02
             309.21,396.28 307.05,393.51 304.83,392.95
             299.64,391.63 287.95,401.85 284.00,405.00
             284.00,405.00 260.17,422.62 260.17,422.62
             255.11,427.23 245.15,440.92 240.63,447.00
             238.14,450.35 229.99,460.72 229.18,464.00
             227.53,470.67 238.31,481.26 244.00,483.44
             247.17,484.65 252.22,484.99 254.61,486.85
             256.78,488.54 261.58,500.71 263.00,504.00
             263.00,504.00 265.00,504.00 265.00,504.00 Z
           M 319.00,396.00
           C 319.00,396.00 318.00,396.00 318.00,396.00
             318.00,396.00 319.00,397.00 319.00,397.00
             319.00,397.00 319.00,396.00 319.00,396.00 Z
           M 517.00,465.00
           C 517.00,465.00 476.79,423.34 476.79,423.34
             474.08,420.63 463.70,409.35 460.83,408.67
             457.02,407.76 452.73,412.17 450.00,414.39
             443.33,419.80 429.35,431.00 427.00,439.00
             427.00,439.00 441.00,443.66 441.00,443.66
             441.00,443.66 485.00,458.39 485.00,458.39
             485.00,458.39 499.00,458.96 499.00,458.96
             499.00,458.96 517.00,465.00 517.00,465.00 Z
           M 246.00,409.00
           C 246.00,409.00 245.00,409.00 245.00,409.00
             245.00,409.00 246.00,410.00 246.00,410.00
             246.00,410.00 246.00,409.00 246.00,409.00 Z
           M 239.00,419.00
           C 239.00,419.00 244.00,418.24 244.00,418.24
             245.68,417.80 249.08,416.75 250.12,415.31
             251.46,413.44 250.10,411.25 247.93,411.16
             244.01,410.99 240.47,415.96 239.00,419.00 Z
           M 396.00,418.00
           C 390.49,416.48 377.30,418.48 371.00,418.91
             368.21,419.10 363.69,418.51 361.60,420.60
             359.81,422.39 360.02,425.65 360.00,428.00
             359.86,448.55 349.86,463.40 349.00,482.00
             354.81,478.98 360.89,468.54 364.86,463.00
             364.86,463.00 396.00,418.00 396.00,418.00 Z
           M 398.00,419.00
           C 392.54,423.62 379.74,443.89 375.00,451.00
             375.00,451.00 349.36,490.00 349.36,490.00
             347.59,494.20 345.44,511.70 346.56,516.00
             347.49,519.59 350.01,523.08 352.24,526.00
             354.96,529.57 357.51,532.67 361.00,535.53
             370.95,543.70 390.13,549.64 403.00,548.91
             410.60,548.48 422.13,546.45 427.47,540.67
             430.36,537.54 431.73,533.00 432.98,529.00
             434.12,525.32 435.09,521.90 434.82,518.00
             434.38,511.86 431.73,494.87 428.66,490.04
             427.05,487.51 425.19,485.99 423.26,483.83
             420.74,481.02 412.96,470.27 411.88,467.00
             410.40,462.52 413.28,460.10 412.63,455.00
             412.26,452.05 409.24,445.10 408.00,442.00
             408.00,442.00 398.00,419.00 398.00,419.00 Z
           M 249.00,420.00
           C 244.52,420.90 231.63,424.09 228.00,426.04
             224.89,427.71 221.72,430.48 219.00,432.75
             200.69,448.07 190.10,467.70 182.67,490.00
             180.22,497.34 174.41,511.78 175.00,519.00
             179.83,514.97 184.46,508.09 188.42,503.00
             188.42,503.00 208.30,477.00 208.30,477.00
             208.30,477.00 222.92,452.00 222.92,452.00
             229.32,443.33 246.03,428.72 249.00,420.00 Z
           M 421.00,442.00
           C 421.60,449.18 426.50,464.33 428.71,472.00
             429.83,475.90 430.63,480.78 434.13,483.26
             437.70,485.80 446.16,484.79 451.00,485.42
             462.58,486.95 492.24,487.72 504.00,486.91
             509.64,486.52 524.78,483.78 530.00,481.96
             532.15,481.21 537.62,478.76 535.83,475.59
             535.10,474.29 533.28,474.19 531.98,474.11
             531.98,474.11 528.00,474.11 528.00,474.11
             523.44,473.88 503.70,467.17 498.00,465.34
             498.00,465.34 456.00,452.33 456.00,452.33
             456.00,452.33 421.00,442.00 421.00,442.00 Z
           M 329.00,445.28
           C 329.00,445.28 321.00,446.64 321.00,446.64
             314.13,448.85 304.77,459.36 299.00,464.42
             294.82,468.10 288.30,474.84 289.34,481.00
             289.96,484.64 293.53,488.27 295.87,491.00
             295.87,491.00 309.52,508.00 309.52,508.00
             314.58,514.82 320.34,527.65 327.00,531.65
             329.05,532.88 333.36,535.04 335.77,534.60
             338.97,534.03 338.84,530.51 339.02,528.00
             339.02,528.00 340.92,509.00 340.92,509.00
             340.92,509.00 344.00,453.00 344.00,453.00
             343.94,443.91 340.99,444.17 329.00,445.28 Z
           M 191.00,453.00
           C 191.00,453.00 190.00,453.00 190.00,453.00
             190.00,453.00 191.00,454.00 191.00,454.00
             191.00,454.00 191.00,453.00 191.00,453.00 Z
           M 230.00,470.00
           C 230.00,470.00 229.00,470.00 229.00,470.00
             229.00,470.00 230.00,471.00 230.00,471.00
             230.00,471.00 230.00,470.00 230.00,470.00 Z
           M 645.00,477.00
           C 645.00,477.00 644.00,477.00 644.00,477.00
             644.00,477.00 645.00,478.00 645.00,478.00
             645.00,478.00 645.00,477.00 645.00,477.00 Z
           M 529.00,485.00
           C 529.00,485.00 497.00,490.09 497.00,490.09
             493.85,490.30 492.31,490.92 489.00,490.68
             489.00,490.68 474.00,490.00 474.00,490.00
             474.00,490.00 460.00,489.00 460.00,489.00
             460.00,489.00 443.00,487.42 443.00,487.42
             440.77,487.13 436.47,486.52 434.60,488.02
             431.14,490.81 435.71,499.76 436.94,503.00
             436.94,503.00 444.63,529.00 444.63,529.00
             446.30,535.77 446.32,540.95 453.00,544.99
             459.76,549.09 472.32,544.80 479.00,541.68
             494.80,534.29 505.49,518.37 516.00,505.00
             520.37,499.44 527.33,491.76 529.00,485.00 Z
           M 440.00,537.00
           C 440.00,537.00 425.00,547.02 425.00,547.02
             418.04,550.59 407.83,551.37 400.00,552.00
             401.94,557.86 409.94,561.74 415.00,564.95
             415.00,564.95 443.00,582.42 443.00,582.42
             448.21,585.67 454.24,590.17 460.00,592.00
             460.00,592.00 451.81,570.00 451.81,570.00
             451.81,570.00 440.00,537.00 440.00,537.00 Z" />
</svg>
