<?xml version="1.0" encoding="UTF-8" standalone="no"?>
<!DOCTYPE svg PUBLIC "-//W3C//DTD SVG 20010904//EN"
              "http://www.w3.org/TR/2001/REC-SVG-20010904/DTD/svg10.dtd">

<svg xmlns="http://www.w3.org/2000/svg"
     viewBox="0 0 278 300"
     id="flash_logo">
  <path id="flash_logo__path"
        stroke="white" stroke-width="1"
        d="M 135.00,0.00
           C 135.00,0.00 138.00,0.00 138.00,0.00
             138.00,0.00 141.00,2.00 141.00,2.00
             141.00,2.00 138.00,14.00 138.00,14.00
             138.00,14.00 148.00,15.00 148.00,15.00
             152.08,5.13 144.87,0.17 158.00,0.00
             158.00,0.00 157.17,5.00 157.17,5.00
             156.92,6.95 156.69,8.80 158.40,10.22
             162.86,13.91 168.20,6.77 171.17,5.17
             174.20,3.54 176.94,4.36 180.00,3.57
             185.71,2.11 187.17,-1.70 194.00,1.00
             194.00,1.00 174.00,12.46 174.00,12.46
             174.00,12.46 160.00,23.00 160.00,23.00
             160.00,23.00 162.00,19.00 162.00,19.00
             157.02,19.26 148.54,24.13 153.00,28.00
             153.00,28.00 142.00,41.00 142.00,41.00
             142.00,41.00 145.00,31.00 145.00,31.00
             145.00,31.00 136.00,34.00 136.00,34.00
             136.00,34.00 141.00,24.00 141.00,24.00
             136.27,24.84 132.89,26.39 131.00,21.00
             122.70,25.87 130.11,25.39 125.00,37.00
             125.00,37.00 130.00,36.00 130.00,36.00
             124.58,44.62 113.26,40.31 121.00,48.00
             121.00,48.00 121.00,50.00 121.00,50.00
             121.00,50.00 120.00,51.00 120.00,51.00
             113.18,50.88 115.43,53.35 109.95,56.47
             102.66,60.63 94.40,62.59 90.17,71.00
             89.03,73.28 88.72,78.06 88.00,81.00
             88.00,81.00 93.00,81.00 93.00,81.00
             93.00,81.00 91.00,76.00 91.00,76.00
             91.00,76.00 100.82,71.30 100.82,71.30
             106.55,66.93 103.13,64.00 115.00,60.00
             115.00,60.00 111.00,73.00 111.00,73.00
             126.72,68.36 111.03,48.20 130.00,51.00
             130.00,51.00 123.26,59.04 123.26,59.04
             123.26,59.04 121.00,68.00 121.00,68.00
             121.00,68.00 126.00,72.00 126.00,72.00
             114.73,71.23 119.48,73.90 112.96,75.27
             107.89,76.33 99.85,75.47 98.00,82.00
             92.24,84.67 82.26,86.21 77.00,82.00
             77.00,82.00 81.00,81.00 81.00,81.00
             81.03,79.00 80.92,76.91 81.59,75.00
             83.28,70.20 91.42,59.58 96.04,56.98
             99.17,55.22 111.45,48.51 113.14,46.20
             114.19,44.78 113.96,43.61 114.00,42.00
             114.00,42.00 108.00,42.00 108.00,42.00
             108.00,42.00 118.00,31.00 118.00,31.00
             118.00,31.00 118.00,38.00 118.00,38.00
             126.41,33.22 122.94,30.93 123.87,25.99
             124.64,21.88 125.76,23.49 126.00,16.00
             131.17,15.01 134.90,13.86 135.00,8.00
             135.00,8.00 130.00,10.00 130.00,10.00
             130.00,10.00 135.00,0.00 135.00,0.00 Z
           M 165.00,42.00
           C 167.39,41.12 170.61,39.68 173.00,39.26
             177.03,38.55 180.30,39.87 183.73,36.69
             185.71,34.85 187.94,29.71 189.75,27.00
             189.75,27.00 198.31,15.00 198.31,15.00
             199.82,11.41 197.99,9.13 200.48,6.61
             203.04,4.03 206.02,5.33 208.96,4.38
             214.03,2.75 212.55,-0.29 219.00,2.00
             219.00,2.00 215.00,8.00 215.00,8.00
             215.00,8.00 223.00,8.00 223.00,8.00
             223.00,8.00 219.00,16.00 219.00,16.00
             219.00,16.00 217.00,16.00 217.00,16.00
             217.00,16.00 214.87,12.08 214.87,12.08
             209.83,5.23 206.11,15.02 204.00,19.00
             204.00,19.00 208.00,24.00 208.00,24.00
             201.88,24.44 195.54,28.53 191.68,33.30
             189.43,36.08 188.87,39.45 184.91,41.91
             181.31,44.15 165.93,45.42 163.75,46.44
             160.94,47.76 158.71,51.48 157.00,54.00
             153.33,53.03 151.31,53.07 149.48,57.02
             149.48,57.02 148.34,62.00 148.34,62.00
             148.34,62.00 145.53,69.00 145.53,69.00
             145.53,69.00 142.49,80.83 142.49,80.83
             141.06,83.81 135.67,88.93 133.00,91.00
             131.21,82.60 137.05,82.58 137.90,75.99
             138.49,71.38 135.86,69.37 139.06,63.11
             140.99,59.31 142.87,59.50 145.63,56.73
             145.63,56.73 151.50,49.73 151.50,49.73
             151.50,49.73 168.26,27.04 168.26,27.04
             173.21,21.33 185.53,13.24 193.00,12.00
             187.80,22.10 185.99,20.91 178.04,26.68
             178.04,26.68 172.72,31.63 172.72,31.63
             168.36,35.52 164.45,35.39 165.00,42.00 Z
           M 230.00,8.00
           C 235.46,5.73 235.71,6.57 238.83,5.47
             242.99,4.00 247.45,-0.77 252.00,7.00
             252.00,7.00 230.00,10.00 230.00,10.00
             230.00,10.00 230.00,8.00 230.00,8.00 Z
           M 67.00,3.00
           C 68.58,7.96 65.69,11.05 62.00,14.00
             62.21,7.94 62.89,7.47 67.00,3.00 Z
           M 88.00,5.00
           C 88.00,5.00 90.00,5.00 90.00,5.00
             90.00,5.00 87.00,19.00 87.00,19.00
             87.00,19.00 85.00,19.00 85.00,19.00
             83.38,11.98 85.51,11.36 88.00,5.00 Z
           M 106.00,9.00
           C 107.72,13.89 105.24,16.79 101.00,19.00
             101.00,19.00 106.00,9.00 106.00,9.00 Z
           M 118.00,9.00
           C 121.76,19.27 111.61,36.21 100.00,34.00
             102.35,27.09 106.13,25.18 110.23,19.83
             113.73,15.27 112.69,14.93 118.00,9.00 Z
           M 247.00,17.00
           C 248.75,14.83 249.55,14.83 251.85,13.39
             257.26,10.00 260.24,7.24 266.00,12.00
             266.00,12.00 257.00,13.46 257.00,13.46
             257.00,13.46 247.00,17.00 247.00,17.00 Z
           M 16.00,21.00
           C 18.68,19.84 25.93,15.36 28.40,17.08
             31.67,19.36 27.02,25.40 25.99,28.00
             21.36,39.60 20.87,49.21 7.00,53.00
             7.00,53.00 16.78,35.00 16.78,35.00
             16.78,35.00 18.24,29.00 18.24,29.00
             18.24,29.00 16.00,21.00 16.00,21.00 Z
           M 59.00,17.00
           C 59.00,17.00 61.00,17.00 61.00,17.00
             61.00,17.00 58.00,22.00 58.00,22.00
             58.00,22.00 59.00,17.00 59.00,17.00 Z
           M 59.00,56.00
           C 59.00,43.93 60.74,23.10 73.00,17.00
             70.63,24.02 62.74,30.03 72.00,33.00
             69.94,40.68 65.29,41.92 72.00,48.00
             68.69,53.00 65.03,55.52 59.00,56.00 Z
           M 237.00,22.00
           C 239.13,18.61 240.17,18.65 244.00,18.00
             244.00,18.00 237.00,22.00 237.00,22.00 Z
           M 228.00,20.00
           C 228.00,20.00 235.00,22.00 235.00,22.00
             233.10,27.41 228.60,27.15 228.00,20.00 Z
           M 88.00,24.00
           C 88.00,24.00 98.00,22.00 98.00,22.00
             93.93,29.97 86.19,43.95 77.00,46.00
             77.00,46.00 81.44,35.00 81.44,35.00
             81.44,35.00 88.00,24.00 88.00,24.00 Z
           M 30.00,45.00
           C 30.00,45.00 31.59,35.00 31.59,35.00
             31.84,33.53 32.14,31.54 32.68,30.17
             34.13,26.52 39.29,20.13 43.00,25.31
             43.00,25.31 47.49,36.96 47.49,36.96
             49.09,40.33 50.89,41.04 51.69,44.09
             51.69,44.09 53.00,60.00 53.00,60.00
             50.40,60.74 47.43,61.04 45.59,63.23
             42.77,66.60 45.30,68.14 40.00,70.00
             40.00,70.00 38.00,53.00 38.00,53.00
             38.00,53.00 43.00,55.00 43.00,55.00
             46.24,45.55 36.78,45.02 30.00,45.00 Z
           M 54.00,23.00
           C 59.00,24.75 58.56,28.04 56.00,32.00
             56.00,32.00 54.00,23.00 54.00,23.00 Z
           M 258.00,23.00
           C 258.00,23.00 274.00,25.00 274.00,25.00
             270.36,31.79 265.12,30.10 260.00,26.00
             260.00,26.00 256.00,31.00 256.00,31.00
             256.00,31.00 258.00,23.00 258.00,23.00 Z
           M 219.00,27.00
           C 219.00,27.00 225.00,26.00 225.00,26.00
             223.71,30.00 223.18,30.35 219.00,30.00
             219.00,30.00 219.00,27.00 219.00,27.00 Z
           M 243.00,28.00
           C 243.00,28.00 249.00,31.00 249.00,31.00
             244.08,34.49 239.68,38.47 235.00,32.00
             240.01,33.16 241.38,33.26 243.00,28.00 Z
           M 40.00,30.00
           C 38.18,34.59 37.83,39.92 43.00,42.00
             43.00,42.00 44.00,41.00 44.00,41.00
             44.00,41.00 40.00,30.00 40.00,30.00 Z
           M 211.00,34.00
           C 214.57,33.55 214.39,33.52 217.00,36.00
             217.00,36.00 211.00,36.00 211.00,36.00
             211.00,36.00 211.00,34.00 211.00,34.00 Z
           M 238.00,41.00
           C 241.06,37.31 243.08,39.36 247.00,38.09
             247.00,38.09 258.00,33.00 258.00,33.00
             258.07,34.98 258.39,35.88 257.07,37.69
             255.76,39.49 247.35,43.82 245.22,43.26
             243.45,42.79 242.87,41.36 242.00,40.00
             242.00,40.00 238.00,41.00 238.00,41.00 Z
           M 125.00,37.00
           C 125.00,37.00 124.00,37.00 124.00,37.00
             124.00,37.00 125.00,38.00 125.00,38.00
             125.00,38.00 125.00,37.00 125.00,37.00 Z
           M 205.00,37.00
           C 205.00,37.00 207.00,37.00 207.00,37.00
             207.00,37.00 207.00,43.00 207.00,43.00
             204.52,40.39 204.55,40.57 205.00,37.00 Z
           M 233.00,41.00
           C 233.00,41.00 235.00,41.00 235.00,41.00
             235.00,41.00 239.00,50.00 239.00,50.00
             239.00,50.00 227.00,51.00 227.00,51.00
             227.00,51.00 227.00,49.00 227.00,49.00
             227.00,49.00 233.00,41.00 233.00,41.00 Z
           M 133.00,42.00
           C 132.11,45.23 130.92,45.59 128.00,47.00
             128.00,47.00 133.00,42.00 133.00,42.00 Z
           M 98.00,43.00
           C 98.00,43.00 100.00,43.00 100.00,43.00
             98.82,50.08 89.89,54.15 85.10,59.09
             80.35,64.00 81.24,66.38 76.00,71.00
             76.00,71.00 75.00,66.00 75.00,66.00
             75.00,66.00 73.00,66.00 73.00,66.00
             73.00,66.00 69.00,70.00 69.00,70.00
             69.00,70.00 68.00,66.00 68.00,66.00
             72.22,63.16 72.86,62.15 78.00,63.00
             78.38,56.13 77.02,52.73 86.00,52.00
             87.95,45.91 91.13,45.15 97.00,46.00
             97.00,46.00 98.00,43.00 98.00,43.00 Z
           M 217.00,43.00
           C 227.71,44.80 224.28,49.48 224.70,54.00
             224.70,54.00 226.00,61.00 226.00,61.00
             216.22,58.42 217.90,56.48 214.79,55.79
             210.42,54.81 207.71,59.30 204.00,54.00
             204.00,54.00 217.00,48.00 217.00,48.00
             217.00,48.00 217.00,43.00 217.00,43.00 Z
           M 142.00,44.00
           C 144.88,46.65 145.14,46.40 149.00,46.00
             146.19,52.40 138.49,59.96 131.00,57.00
             135.89,55.21 140.31,54.10 135.00,49.00
             135.00,49.00 142.00,44.00 142.00,44.00 Z
           M 262.00,44.00
           C 262.00,44.00 271.00,47.00 271.00,47.00
             266.71,51.85 266.76,50.37 261.58,52.22
             253.74,55.02 257.38,55.96 247.00,56.00
             250.22,47.53 255.88,50.80 262.00,44.00 Z
           M 23.00,99.00
           C 18.03,97.25 18.02,93.78 18.01,89.00
             18.00,83.30 21.39,69.17 22.87,63.00
             23.62,59.86 24.09,54.57 26.42,52.37
             28.05,50.84 30.35,50.52 30.89,53.16
             31.17,54.51 29.39,62.42 28.86,64.00
             26.71,70.37 21.90,71.86 23.22,79.99
             23.79,83.47 25.43,84.73 25.62,87.17
             25.62,87.17 23.00,99.00 23.00,99.00 Z
           M 176.00,50.00
           C 179.31,54.61 176.91,56.95 173.00,60.00
             173.00,60.00 170.00,55.00 170.00,55.00
             170.00,55.00 176.00,50.00 176.00,50.00 Z
           M 14.00,136.00
           C 14.00,136.00 12.58,125.00 12.58,125.00
             12.59,121.60 14.74,119.05 13.26,115.00
             11.95,111.40 8.44,108.98 7.04,106.00
             5.56,102.86 6.85,100.75 6.41,98.00
             5.77,94.03 2.74,92.33 3.13,87.02
             3.55,81.14 8.18,80.99 9.24,75.98
             10.00,72.44 7.73,70.44 7.44,67.00
             6.78,59.31 12.65,57.19 19.00,56.00
             17.81,63.61 16.15,63.89 14.10,70.00
             13.27,72.50 11.12,86.49 11.32,89.00
             12.41,102.72 17.63,108.09 20.25,119.00
             22.06,126.54 21.03,132.01 14.00,136.00 Z
           M 245.00,56.00
           C 246.32,60.96 243.36,62.59 240.61,66.17
             237.85,69.76 231.88,78.04 226.96,78.31
             225.62,78.38 222.46,77.37 221.00,77.00
             221.00,77.00 218.00,85.00 218.00,85.00
             218.00,85.00 228.00,84.00 228.00,84.00
             225.50,87.87 220.37,89.18 216.00,90.00
             216.00,90.00 216.00,83.00 216.00,83.00
             205.64,86.49 204.85,91.77 199.00,86.00
             199.00,86.00 206.00,85.00 206.00,85.00
             206.00,85.00 206.00,79.00 206.00,79.00
             206.00,79.00 201.00,80.00 201.00,80.00
             201.00,80.00 200.00,77.00 200.00,77.00
             203.76,76.37 204.11,76.35 206.00,73.00
             200.75,71.41 199.65,70.48 199.00,65.00
             205.32,66.23 206.13,64.96 210.00,60.00
             210.00,60.00 212.00,60.00 212.00,60.00
             212.00,60.00 213.00,61.00 213.00,61.00
             213.00,61.00 209.30,67.96 209.30,67.96
             208.22,72.14 213.33,73.45 208.00,77.00
             208.00,77.00 208.00,79.00 208.00,79.00
             208.00,79.00 222.00,72.68 222.00,72.68
             222.00,72.68 232.91,67.53 232.91,67.53
             232.91,67.53 245.00,56.00 245.00,56.00 Z
           M 195.00,57.00
           C 204.39,68.74 188.23,70.98 180.00,71.00
             180.01,69.28 179.87,65.80 180.60,64.31
             182.84,59.74 189.23,63.05 192.00,65.00
             192.00,65.00 195.00,57.00 195.00,57.00 Z
           M 58.06,60.00
           C 59.10,61.12 59.80,61.44 60.36,63.11
             61.94,67.84 55.62,77.22 67.00,75.00
             69.84,79.56 71.81,76.82 75.00,74.00
             73.28,79.41 71.01,82.09 67.00,86.00
             67.00,86.00 67.00,80.00 67.00,80.00
             67.00,80.00 62.00,81.00 62.00,81.00
             62.00,81.00 64.21,92.74 64.21,92.74
             64.21,92.74 68.00,98.00 68.00,98.00
             68.00,98.00 59.00,102.00 59.00,102.00
             59.67,92.36 58.89,97.09 58.06,90.00
             57.33,82.55 56.36,66.95 58.06,60.00 Z
           M 154.00,77.00
           C 154.49,75.43 154.45,74.79 155.59,73.39
             157.94,70.52 168.28,64.10 172.00,63.00
             169.42,68.02 166.72,68.43 165.15,73.00
             162.05,82.02 170.43,91.56 173.00,100.00
             173.00,100.00 181.49,96.42 181.49,96.42
             181.49,96.42 187.00,91.00 187.00,91.00
             188.34,99.52 192.23,97.45 188.00,105.00
             188.00,105.00 186.00,105.00 186.00,105.00
             185.04,103.94 181.54,99.88 180.45,103.28
             179.42,106.47 184.76,108.60 188.96,116.00
             188.96,116.00 196.34,131.01 196.34,131.01
             196.34,131.01 195.00,143.00 195.00,143.00
             195.00,143.00 204.00,141.00 204.00,141.00
             204.00,141.00 200.00,120.00 200.00,120.00
             204.17,123.25 213.99,132.66 214.60,138.00
             215.64,147.04 203.03,150.81 196.00,150.34
             196.00,150.34 185.00,148.00 185.00,148.00
             185.00,148.00 188.90,136.00 188.90,136.00
             188.90,136.00 186.59,127.72 186.59,127.72
             186.59,127.72 188.00,121.00 188.00,121.00
             180.27,118.92 182.21,115.02 178.92,115.04
             176.43,115.06 175.60,118.01 174.88,119.83
             171.74,127.75 173.07,123.62 171.00,132.00
             171.00,132.00 176.00,133.00 176.00,133.00
             176.00,133.00 178.00,124.00 178.00,124.00
             178.00,124.00 182.00,147.00 182.00,147.00
             182.00,147.00 165.00,144.00 165.00,144.00
             165.00,144.00 165.00,142.00 165.00,142.00
             172.15,134.13 158.36,129.74 150.00,119.00
             156.64,119.00 160.44,117.76 163.00,125.00
             169.93,121.86 168.88,119.69 171.91,114.42
             173.46,111.71 176.75,109.18 174.22,105.17
             171.14,100.30 165.02,100.62 160.00,100.00
             160.00,100.00 161.29,96.43 161.29,96.43
             162.57,88.62 150.91,93.60 147.00,88.00
             147.00,88.00 161.00,86.00 161.00,86.00
             161.00,86.00 157.00,84.00 157.00,84.00
             158.16,79.66 157.81,79.30 154.00,77.00 Z
           M 34.00,67.00
           C 38.15,70.88 41.41,76.56 43.00,82.00
             41.65,81.60 39.88,80.77 38.46,81.38
             36.94,82.03 37.33,84.18 40.08,84.23
             41.24,84.25 43.79,83.36 45.00,83.00
             45.00,83.00 44.00,89.00 44.00,89.00
             44.00,89.00 50.00,88.00 50.00,88.00
             46.83,92.31 44.90,92.71 44.00,98.00
             44.00,98.00 55.00,94.00 55.00,94.00
             56.36,107.46 47.42,102.11 47.00,114.00
             47.00,114.00 43.00,115.00 43.00,115.00
             43.00,115.00 47.00,120.00 47.00,120.00
             48.84,115.44 50.41,116.05 55.00,116.00
             56.81,110.31 60.22,110.64 65.00,107.56
             68.76,105.13 76.03,97.96 78.00,94.00
             85.60,97.18 84.14,93.83 93.00,92.67
             93.00,92.67 105.00,91.48 105.00,91.48
             105.00,91.48 112.00,91.48 112.00,91.48
             116.39,90.84 119.41,88.32 121.67,89.29
             123.28,89.99 123.33,91.53 123.30,93.02
             123.14,102.35 124.09,98.91 126.00,107.00
             126.00,107.00 130.00,98.00 130.00,98.00
             130.00,98.00 132.00,98.00 132.00,98.00
             138.41,112.36 145.88,105.45 149.00,118.00
             149.00,118.00 132.09,111.66 132.09,111.66
             132.09,111.66 120.00,124.00 120.00,124.00
             120.00,124.00 122.11,107.43 122.11,107.43
             122.11,107.43 119.00,97.00 119.00,97.00
             114.90,98.22 114.61,98.64 112.00,102.00
             113.55,102.36 114.89,102.40 116.02,103.74
             117.59,105.60 118.64,112.52 117.23,114.59
             116.36,115.86 115.22,116.27 114.00,117.00
             115.10,110.73 115.22,108.40 111.07,103.04
             107.84,98.87 105.30,97.00 102.00,102.00
             106.40,104.96 108.06,113.11 110.00,118.00
             105.15,118.47 103.87,120.34 100.00,123.00
             103.19,112.74 101.35,116.94 100.82,108.00
             100.82,108.00 100.82,99.86 100.82,99.86
             94.79,101.09 93.84,98.88 91.11,99.86
             85.69,101.40 92.41,110.99 93.58,114.00
             94.22,115.63 95.10,118.33 92.84,119.09
             92.84,119.09 86.00,119.09 86.00,119.09
             86.00,119.09 89.00,112.00 89.00,112.00
             83.69,110.32 83.67,107.95 82.00,103.00
             82.00,103.00 72.00,109.00 72.00,109.00
             73.99,114.70 80.41,128.75 86.17,130.85
             88.04,131.53 89.35,130.66 91.00,130.00
             91.00,130.00 95.00,135.00 95.00,135.00
             95.00,135.00 99.00,132.00 99.00,132.00
             100.67,133.97 101.66,135.30 104.04,136.55
             113.23,141.38 125.57,136.57 129.33,149.99
             129.75,151.73 129.82,153.62 129.33,155.42
             129.33,155.42 129.33,160.00 129.33,160.00
             129.33,160.00 126.00,160.00 126.00,160.00
             123.54,153.88 125.14,151.99 123.22,149.39
             120.69,145.94 108.29,142.01 104.00,141.46
             98.04,140.70 102.20,142.62 92.00,140.00
             96.96,152.55 109.29,148.03 113.00,163.00
             113.00,163.00 105.00,165.00 105.00,165.00
             108.20,170.87 108.39,174.31 102.00,178.00
             101.16,175.30 100.09,172.89 100.38,170.00
             100.76,166.11 106.65,156.18 97.99,157.11
             97.99,157.11 95.00,158.00 95.00,158.00
             95.00,158.00 95.00,148.00 95.00,148.00
             95.00,148.00 82.00,150.00 82.00,150.00
             82.00,150.00 82.00,147.00 82.00,147.00
             83.74,146.71 85.22,146.69 86.65,145.40
             91.16,141.35 84.87,132.80 82.21,141.02
             82.21,141.02 82.21,144.00 82.21,144.00
             77.25,140.98 71.96,130.67 71.89,125.00
             71.87,123.04 72.41,121.79 73.00,120.00
             73.00,120.00 55.00,119.00 55.00,119.00
             54.91,130.98 55.02,130.96 47.00,130.00
             47.00,130.00 46.00,138.00 46.00,138.00
             46.00,138.00 40.00,135.00 40.00,135.00
             39.27,140.68 40.81,140.21 42.48,145.00
             42.48,145.00 44.00,152.00 44.00,152.00
             39.31,148.26 39.26,146.52 35.96,142.04
             31.81,136.40 25.91,134.06 33.00,128.00
             34.14,134.87 37.35,133.49 37.96,130.89
             38.49,128.60 36.72,124.29 36.00,122.00
             40.02,122.35 41.43,121.43 40.93,117.00
             40.49,113.03 38.01,110.27 36.79,106.00
             36.79,106.00 35.00,92.00 35.00,92.00
             35.00,92.00 41.00,92.00 41.00,92.00
             41.00,92.00 41.00,90.00 41.00,90.00
             41.00,90.00 34.00,88.00 34.00,88.00
             34.00,88.00 34.00,67.00 34.00,67.00 Z
           M 46.00,72.00
           C 51.06,69.25 52.44,68.22 55.00,74.00
             50.50,75.63 48.65,76.64 46.00,72.00 Z
           M 179.00,85.00
           C 184.21,83.38 188.73,80.80 190.00,88.00
             184.45,86.97 184.13,88.17 179.00,90.00
             179.00,90.00 179.00,85.00 179.00,85.00 Z
           M 203.00,93.00
           C 207.38,91.08 209.33,90.57 212.00,95.00
             212.00,95.00 220.00,93.00 220.00,93.00
             220.54,95.91 220.39,99.08 219.34,101.92
             218.53,104.13 216.79,105.50 216.94,108.04
             217.53,117.74 226.97,113.69 237.00,117.00
             237.00,117.00 237.00,119.00 237.00,119.00
             237.00,119.00 234.02,120.41 234.02,120.41
             224.80,125.88 236.63,128.19 238.96,133.28
             240.22,136.04 238.28,137.85 236.32,137.28
             234.83,136.85 233.66,135.06 232.63,134.00
             230.33,131.64 229.91,131.39 227.00,130.00
             226.82,140.03 235.51,136.64 232.00,144.00
             232.00,144.00 230.00,140.00 230.00,140.00
             230.00,140.00 228.00,140.00 228.00,140.00
             223.78,149.49 225.55,144.51 228.00,153.00
             224.29,152.81 222.31,151.95 221.31,147.99
             220.38,144.26 221.96,140.83 221.92,138.00
             221.92,138.00 220.21,126.00 220.21,126.00
             218.81,120.01 213.95,114.75 211.00,109.00
             211.00,109.00 206.00,114.00 206.00,114.00
             202.17,113.62 201.87,113.36 199.00,116.00
             192.81,113.04 191.14,110.35 194.00,104.00
             194.00,104.00 200.00,107.00 200.00,107.00
             200.00,107.00 201.00,112.00 201.00,112.00
             201.00,112.00 212.00,100.00 212.00,100.00
             206.21,98.37 205.65,98.62 203.00,93.00 Z
           M 135.00,100.00
           C 135.00,100.00 148.00,100.86 148.00,100.86
             148.00,100.86 158.00,100.00 158.00,100.00
             155.07,105.97 152.86,105.50 147.00,107.00
             143.39,99.82 140.96,102.39 135.00,100.00 Z
           M 59.00,103.00
           C 59.00,103.00 58.00,108.00 58.00,108.00
             58.00,108.00 59.00,103.00 59.00,103.00 Z
           M 25.00,112.00
           C 32.39,113.24 32.65,116.30 31.00,123.00
             31.00,123.00 25.00,112.00 25.00,112.00 Z
           M 59.00,122.00
           C 59.00,122.00 61.00,122.00 61.00,122.00
             61.00,122.00 68.96,138.00 68.96,138.00
             73.81,145.45 79.90,146.55 75.00,156.00
             75.00,156.00 73.00,156.00 73.00,156.00
             71.69,149.95 70.43,142.17 62.79,142.00
             62.79,142.00 62.79,131.72 62.79,131.72
             62.79,131.72 59.00,122.00 59.00,122.00 Z
           M 54.00,138.00
           C 54.00,138.00 57.00,143.00 57.00,143.00
             54.16,141.25 54.20,141.32 54.00,138.00 Z
           M 17.00,152.00
           C 17.19,144.78 18.84,141.45 26.00,139.00
             26.00,139.00 38.00,157.00 38.00,157.00
             38.00,157.00 25.00,150.83 25.00,150.83
             25.00,150.83 17.00,152.00 17.00,152.00 Z
           M 48.00,144.00
           C 58.97,147.50 57.89,154.04 66.00,153.00
             66.00,153.00 67.00,157.00 67.00,157.00
             67.00,157.00 64.00,156.00 64.00,156.00
             64.00,156.00 62.00,161.00 62.00,161.00
             55.27,157.67 51.39,150.41 48.00,144.00 Z
           M 242.00,146.00
           C 242.00,146.00 246.00,148.00 246.00,148.00
             244.98,150.17 242.69,156.23 241.44,157.57
             239.67,159.48 231.77,162.13 229.29,161.30
             227.78,160.80 227.72,160.07 227.00,159.00
             221.68,161.08 216.84,161.63 213.00,166.00
             222.47,169.07 220.34,167.31 228.99,166.69
             233.40,166.38 234.52,167.97 239.01,165.57
             243.36,163.25 246.15,159.00 249.83,156.00
             251.25,160.77 250.59,161.39 249.83,166.00
             249.83,166.00 248.42,174.00 248.42,174.00
             246.84,178.52 241.92,183.75 237.00,184.27
             237.00,184.27 229.00,184.27 229.00,184.27
             229.00,184.27 217.00,185.51 217.00,185.51
             210.55,185.05 205.62,181.08 201.00,177.00
             198.90,183.38 200.39,183.83 199.02,188.00
             196.37,196.08 195.19,193.29 192.45,207.00
             190.63,216.08 192.35,218.75 187.93,227.00
             184.76,232.94 185.55,236.71 179.00,240.00
             180.44,229.34 182.37,229.46 182.90,224.00
             182.90,224.00 183.72,196.00 183.72,196.00
             184.30,191.02 182.33,184.12 187.00,181.00
             187.00,181.00 188.00,192.00 188.00,192.00
             192.78,186.37 190.59,182.31 189.03,176.00
             188.37,173.31 187.84,169.60 186.15,167.38
             183.62,164.04 177.06,160.30 174.18,165.15
             172.00,168.79 174.94,180.93 175.00,186.00
             175.00,186.00 175.00,208.00 175.00,208.00
             175.00,208.00 175.57,221.91 175.57,221.91
             173.88,229.32 167.99,229.17 165.49,231.47
             163.66,233.15 163.65,234.74 160.00,238.00
             151.94,230.33 153.17,230.39 154.00,220.00
             154.00,220.00 156.00,220.00 156.00,220.00
             156.89,228.33 158.62,228.50 166.00,228.00
             166.00,228.00 166.00,223.00 166.00,223.00
             166.00,223.00 173.00,223.00 173.00,223.00
             173.00,223.00 173.00,216.00 173.00,216.00
             173.00,216.00 167.00,215.00 167.00,215.00
             167.00,215.00 165.00,221.00 165.00,221.00
             165.00,221.00 163.00,215.00 163.00,215.00
             168.53,210.83 171.76,207.05 172.00,200.00
             172.00,200.00 167.00,204.00 167.00,204.00
             167.00,204.00 161.00,199.00 161.00,199.00
             166.13,196.70 173.33,192.93 168.00,187.00
             168.00,187.00 167.00,190.00 167.00,190.00
             167.00,190.00 165.00,190.00 165.00,190.00
             164.31,184.48 166.92,184.51 170.00,179.00
             168.23,178.31 163.75,176.12 162.15,176.28
             158.78,176.63 157.51,186.11 157.00,189.00
             157.00,189.00 141.00,197.00 141.00,197.00
             141.00,197.00 144.83,208.00 144.83,208.00
             144.83,208.00 147.22,224.99 147.22,224.99
             147.22,224.99 147.22,231.28 147.22,231.28
             147.48,234.18 149.10,236.15 149.45,241.00
             149.81,245.88 151.59,252.93 147.00,256.00
             149.65,247.22 143.63,246.31 138.12,240.41
             134.86,236.90 134.07,234.55 133.00,230.00
             140.14,231.89 141.40,231.84 143.00,239.00
             143.00,239.00 141.00,223.00 141.00,223.00
             141.00,223.00 133.00,228.00 133.00,228.00
             133.52,222.25 133.93,219.37 140.00,218.00
             139.69,215.84 139.38,213.10 138.35,211.14
             136.71,208.03 134.87,208.51 132.79,206.42
             130.05,203.67 129.21,198.21 122.00,200.54
             120.36,201.08 118.98,201.76 118.02,203.28
             116.70,205.37 117.04,210.31 116.72,213.00
             115.70,221.50 115.56,221.36 112.00,229.00
             114.97,231.72 113.42,233.55 111.00,236.00
             107.81,224.97 98.48,236.78 88.00,230.00
             88.00,230.00 107.85,226.98 107.85,226.98
             109.47,226.01 110.20,224.81 110.52,222.98
             110.52,222.98 111.23,210.09 111.23,210.09
             110.33,206.58 105.07,204.42 110.23,199.27
             116.42,193.11 125.06,196.83 133.99,192.17
             137.07,190.55 147.22,181.87 148.91,178.99
             148.91,178.99 152.91,168.00 152.91,168.00
             154.27,165.07 156.96,161.78 157.84,159.00
             158.56,155.58 156.98,154.19 157.84,149.00
             167.08,151.13 176.47,160.21 184.00,160.00
             184.00,160.00 183.00,157.00 183.00,157.00
             183.00,157.00 193.00,160.55 193.00,160.55
             193.00,160.55 200.00,160.55 200.00,160.55
             200.00,160.55 210.00,165.00 210.00,165.00
             210.00,165.00 206.00,155.00 206.00,155.00
             206.00,155.00 222.00,156.34 222.00,156.34
             222.00,156.34 228.00,155.28 228.00,155.28
             228.00,155.28 232.99,154.69 232.99,154.69
             232.99,154.69 238.39,150.49 238.39,150.49
             238.39,150.49 242.00,146.00 242.00,146.00 Z
           M 45.00,162.00
           C 49.28,161.03 50.67,161.12 53.00,165.00
             48.90,164.76 48.08,164.84 45.00,162.00 Z
           M 92.00,162.00
           C 92.00,162.00 95.00,168.00 95.00,168.00
             91.23,166.48 91.13,165.91 92.00,162.00 Z
           M 114.00,163.00
           C 116.67,163.36 119.59,163.66 122.00,164.98
             129.85,169.31 133.38,180.70 126.00,187.00
             125.67,184.55 121.75,172.18 120.60,170.11
             118.43,166.22 116.04,167.31 115.34,171.03
             114.55,175.21 118.06,181.33 117.51,184.96
             116.82,189.56 111.95,189.77 108.04,192.64
             108.04,192.64 101.00,199.00 101.00,199.00
             101.66,192.58 103.99,191.04 97.00,188.00
             97.00,188.00 98.00,182.00 98.00,182.00
             101.54,183.38 101.38,184.40 102.00,188.00
             112.38,181.22 103.70,172.55 115.00,167.00
             115.00,167.00 114.00,163.00 114.00,163.00 Z
           M 168.00,164.00
           C 165.22,167.80 165.80,169.76 169.00,173.00
             169.00,173.00 168.00,164.00 168.00,164.00 Z
           M 224.00,177.00
           C 224.00,177.00 210.00,173.08 210.00,173.08
             204.84,170.74 204.33,167.21 198.00,168.00
             202.47,175.20 216.45,182.55 224.00,177.00 Z
           M 69.00,189.07
           C 69.00,189.07 72.83,189.07 72.83,189.07
             72.83,189.07 84.00,198.00 84.00,198.00
             77.68,198.55 78.92,195.77 72.00,193.00
             73.37,198.56 77.14,203.82 82.00,206.93
             84.79,208.72 93.44,213.28 95.11,215.39
             96.55,217.22 97.29,219.81 98.00,222.00
             89.63,221.54 86.67,219.55 80.00,215.00
             80.00,215.00 79.00,219.00 79.00,219.00
             79.00,219.00 77.00,219.00 77.00,219.00
             77.00,219.00 67.00,201.00 67.00,201.00
             67.00,201.00 71.00,202.00 71.00,202.00
             71.00,202.00 69.00,189.07 69.00,189.07 Z
           M 90.00,198.00
           C 93.77,199.22 93.89,199.68 96.00,203.00
             90.39,207.37 87.77,207.73 83.00,202.00
             83.00,202.00 90.00,198.00 90.00,198.00 Z
           M 101.00,202.00
           C 103.40,206.88 103.94,209.62 104.00,215.00
             95.62,213.57 96.22,207.32 101.00,202.00 Z
           M 173.00,234.00
           C 173.00,234.00 175.00,234.00 175.00,234.00
             174.84,237.57 174.43,242.85 172.27,245.79
             167.13,252.75 160.76,251.24 159.00,243.00
             159.00,243.00 165.00,241.00 165.00,241.00
             165.00,241.00 170.00,242.00 170.00,242.00
             170.00,242.00 173.00,234.00 173.00,234.00 Z
           M 163.00,266.00
           C 171.84,262.94 171.85,260.60 177.45,254.28
             177.45,254.28 182.66,248.96 182.66,248.96
             187.56,243.16 187.80,238.15 198.00,237.00
             198.00,237.00 194.15,242.26 194.15,242.26
             194.15,242.26 199.00,253.00 199.00,253.00
             196.75,253.50 193.19,253.82 191.60,255.51
             189.09,258.19 190.83,263.55 190.91,267.00
             191.08,273.96 193.19,278.01 192.00,285.00
             184.85,282.80 185.27,278.07 178.00,275.14
             175.36,274.08 170.79,272.97 168.09,274.09
             166.22,274.87 164.84,276.71 162.83,277.31
             158.90,278.48 156.74,274.49 150.33,282.02
             145.33,287.88 146.20,292.11 141.00,297.00
             141.00,297.00 138.00,280.00 138.00,280.00
             145.47,275.72 138.50,272.65 134.00,271.00
             134.00,271.00 134.00,269.00 134.00,269.00
             142.21,266.97 144.68,269.19 152.00,271.00
             152.67,269.86 152.80,268.90 154.28,268.29
             156.38,267.43 161.66,270.57 160.68,266.18
             160.68,266.18 159.64,264.62 159.64,264.62
             159.64,264.62 158.00,263.00 158.00,263.00
             152.11,266.75 154.28,260.46 143.00,264.00
             144.00,262.43 144.62,261.06 146.33,260.04
             149.46,258.26 161.35,259.18 165.00,260.04
             165.00,260.04 163.00,266.00 163.00,266.00 Z
           M 127.00,243.00
           C 127.00,243.00 134.00,248.20 134.00,248.20
             134.00,248.20 141.26,251.95 141.26,251.95
             143.71,254.22 142.20,258.31 138.94,257.97
             135.73,257.64 129.59,250.82 128.17,248.00
             127.24,246.14 127.23,244.97 127.00,243.00 Z
           M 178.00,269.00
           C 180.02,269.79 183.75,271.85 185.82,271.26
             190.13,270.02 189.14,248.81 180.65,260.06
             179.78,261.21 179.08,262.62 178.65,264.00
             178.12,265.70 178.10,267.25 178.00,269.00 Z" />
</svg>
