<?xml version="1.0" encoding="UTF-8" standalone="no"?>
<!DOCTYPE svg PUBLIC "-//W3C//DTD SVG 20010904//EN"
              "http://www.w3.org/TR/2001/REC-SVG-20010904/DTD/svg10.dtd">

<svg xmlns="http://www.w3.org/2000/svg"
     viewBox="0 0 400 124"
     id="wake_up">
  <path id="wake_up__path"
        fill="transparent"
        stroke="white"
        stroke-width="1"
        d="M 219.00,56.00
           C 219.00,56.00 239.00,55.00 239.00,55.00
             242.66,54.98 252.56,54.18 250.34,60.87
             248.81,65.52 241.81,64.87 238.00,65.04
             238.00,65.04 222.06,66.31 222.06,66.31
             220.72,66.68 219.81,67.13 219.02,68.31
             217.70,70.29 217.96,75.55 218.00,78.00
             218.33,95.97 241.27,81.28 248.55,87.74
             251.59,90.42 250.31,94.78 244.98,95.72
             240.33,96.65 223.84,96.55 219.00,95.72
             210.23,94.08 208.84,88.67 207.73,81.00
             207.73,81.00 209.00,44.00 209.00,44.00
             208.95,39.83 206.63,31.64 210.43,29.02
             212.34,27.71 217.45,28.02 220.00,27.72
             226.37,26.96 244.59,25.71 249.94,28.43
             254.90,30.95 255.03,37.02 248.98,37.84
             248.98,37.84 236.00,37.00 236.00,37.00
             236.00,37.00 231.00,37.00 231.00,37.00
             227.90,37.04 222.86,37.14 220.60,39.56
             218.17,42.16 219.00,52.26 219.00,56.00 Z
           M 369.00,69.00
           C 369.00,72.97 369.48,88.15 368.26,90.85
             366.59,94.55 361.92,94.53 360.02,91.69
             358.79,89.84 359.00,86.18 359.04,84.00
             359.04,84.00 359.04,67.00 359.04,67.00
             359.04,67.00 360.00,56.00 360.00,56.00
             360.02,51.16 359.93,48.91 360.58,44.00
             361.05,40.42 360.50,34.06 362.74,31.43
             365.11,28.64 370.57,28.87 374.00,28.74
             395.27,27.97 405.95,47.26 393.79,60.96
             386.37,69.32 379.11,69.00 369.00,69.00 Z
           M 61.00,55.00
           C 61.00,55.00 50.44,80.00 50.44,80.00
             50.44,80.00 48.42,87.94 48.42,87.94
             47.11,90.96 44.23,92.36 41.02,91.67
             35.81,90.54 35.20,84.31 34.13,80.00
             34.13,80.00 25.33,48.00 25.33,48.00
             24.20,44.61 20.70,36.15 21.36,33.06
             22.32,28.51 27.50,28.26 30.35,31.31
             33.07,34.22 36.54,46.70 37.63,51.00
             39.22,57.28 40.48,64.07 43.00,70.00
             43.00,70.00 53.45,40.00 53.45,40.00
             54.83,36.63 57.24,31.76 61.01,30.66
             66.39,29.08 68.37,35.02 69.19,39.00
             71.59,50.58 71.77,64.22 77.00,75.00
             77.00,75.00 85.00,55.00 85.00,55.00
             85.00,55.00 89.85,42.00 89.85,42.00
             90.94,38.13 91.76,33.16 95.21,30.60
             98.64,28.05 103.59,29.19 103.65,34.02
             103.67,36.03 100.52,44.54 99.66,47.00
             99.66,47.00 84.80,82.00 84.80,82.00
             82.72,87.15 80.34,95.47 73.05,93.55
             68.77,92.43 67.84,87.75 66.89,84.00
             66.89,84.00 61.00,55.00 61.00,55.00 Z
           M 166.79,74.00
           C 166.79,74.00 166.79,92.94 166.79,92.94
             165.15,97.71 160.17,97.63 157.74,94.69
             155.00,91.38 155.95,74.94 156.00,70.00
             156.00,70.00 157.00,57.00 157.00,57.00
             157.00,57.00 157.00,39.00 157.00,39.00
             157.01,36.44 156.81,32.55 158.74,30.60
             161.07,28.24 166.11,28.81 167.57,34.02
             167.57,34.02 167.00,55.00 167.00,55.00
             167.00,55.00 180.96,41.00 180.96,41.00
             180.96,41.00 187.17,34.15 187.17,34.15
             189.64,31.84 193.55,29.80 196.53,32.60
             199.94,35.80 196.07,40.31 193.98,43.00
             188.28,50.34 179.71,58.29 173.00,65.00
             173.00,65.00 193.00,81.90 193.00,81.90
             195.85,83.81 200.99,85.72 200.42,89.96
             199.73,95.12 193.34,94.04 190.00,92.64
             183.51,89.91 172.32,79.20 166.79,74.00 Z
           M 300.43,33.03
           C 307.16,30.62 307.92,35.64 307.75,41.00
             307.75,41.00 307.75,61.00 307.75,61.00
             306.80,72.26 310.64,87.38 325.00,84.77
             330.59,83.76 333.75,78.92 335.74,74.00
             339.39,65.00 339.95,52.65 340.00,43.00
             340.02,40.19 339.84,36.61 341.74,34.31
             344.25,31.27 350.92,29.71 351.00,41.00
             351.15,63.68 346.38,100.18 315.00,94.67
             294.31,91.04 296.98,62.42 297.00,47.00
             297.01,41.88 296.70,36.96 300.43,33.03 Z
           M 127.03,34.08
           C 133.71,32.78 134.16,38.90 135.20,44.00
             135.20,44.00 141.88,74.00 141.88,74.00
             141.88,74.00 145.39,85.00 145.39,85.00
             146.28,88.81 145.08,93.88 140.04,92.34
             132.16,89.94 135.27,76.77 125.98,76.06
             123.02,75.83 112.73,76.75 110.63,78.60
             106.85,81.94 103.97,96.59 96.16,91.97
             90.97,88.91 96.51,80.12 98.07,76.00
             101.22,67.67 101.81,69.97 106.19,63.00
             111.07,55.23 119.98,38.97 127.03,34.08 Z
           M 370.00,59.00
           C 374.30,59.00 379.04,59.39 382.96,57.31
             389.67,53.75 391.24,45.52 383.98,41.01
             380.03,38.55 375.44,39.00 371.00,39.00
             371.00,39.00 370.00,59.00 370.00,59.00 Z
           M 126.00,52.00
           C 126.00,52.00 124.00,52.00 124.00,52.00
             124.00,52.00 116.00,67.00 116.00,67.00
             116.00,67.00 129.00,66.00 129.00,66.00
             129.00,66.00 126.00,52.00 126.00,52.00 Z" />
</svg>
